<svg xmlns="http://www.w3.org/2000/svg" viewBox="0 0 962.72 283.17"><defs><style>.cls-1{fill:#fff;}</style></defs><title>logo-blockdemy</title><g id="Capa_2" data-name="Capa 2"><g id="Capa_1-2" data-name="Capa 1"><path class="cls-1" d="M275.32,141.59a15.74,15.74,0,1,1-15.74-15.74,15.74,15.74,0,0,1,15.74,15.74"/><path class="cls-1" d="M233.36,183.54a15.73,15.73,0,1,1-15.73-15.73,15.73,15.73,0,0,1,15.73,15.73"/><path class="cls-1" d="M191.41,225.49a15.73,15.73,0,1,1-15.73-15.73,15.73,15.73,0,0,1,15.73,15.73"/><path class="cls-1" d="M149.46,267.44a15.73,15.73,0,1,1-15.73-15.73,15.73,15.73,0,0,1,15.73,15.73"/><path class="cls-1" d="M233.36,99.64A15.73,15.73,0,1,1,217.63,83.9a15.73,15.73,0,0,1,15.73,15.74"/><path class="cls-1" d="M191.41,57.68A15.73,15.73,0,1,1,175.68,42a15.74,15.74,0,0,1,15.73,15.73"/><path class="cls-1" d="M149.46,15.73A15.73,15.73,0,1,1,133.73,0a15.73,15.73,0,0,1,15.73,15.73"/><path class="cls-1" d="M162.57,141.59a13.11,13.11,0,1,1,13.11,13.1,13.1,13.1,0,0,1-13.11-13.1"/><path class="cls-1" d="M81.29,141.58a10.49,10.49,0,1,1,10.49,10.49,10.49,10.49,0,0,1-10.49-10.49"/><path class="cls-1" d="M0,141.58a7.87,7.87,0,1,1,7.87,7.87A7.86,7.86,0,0,1,0,141.58"/><path class="cls-1" d="M39.34,99.63a10.49,10.49,0,1,1,10.49,10.49A10.49,10.49,0,0,1,39.34,99.63"/><path class="cls-1" d="M39.34,183.53A10.49,10.49,0,1,1,49.83,194a10.49,10.49,0,0,1-10.49-10.49"/><path class="cls-1" d="M120.62,99.63a13.11,13.11,0,1,1,13.11,13.11,13.11,13.11,0,0,1-13.11-13.11"/><path class="cls-1" d="M78.67,57.68A13.11,13.11,0,1,1,91.78,70.79,13.11,13.11,0,0,1,78.67,57.68"/><path class="cls-1" d="M78.67,225.49A13.11,13.11,0,1,1,91.78,238.6a13.11,13.11,0,0,1-13.11-13.11"/><path class="cls-1" d="M120.62,183.54a13.11,13.11,0,1,1,13.11,13.11,13.11,13.11,0,0,1-13.11-13.11"/><path class="cls-1" d="M339.42,83.9h9.14v39.47c5.36-9.14,14-13.4,24.12-13.4,18.39,0,30.2,14.25,30.2,31.67s-11.81,31.67-30.2,31.67c-10.11,0-18.76-4.26-24.12-13.4V172h-9.14Zm32.4,34.23c-12.91,0-23.38,9.38-23.38,23.51s10.47,23.51,23.38,23.51c13.77,0,21.93-10.72,21.93-23.51,0-13-8.16-23.51-21.93-23.51"/><rect class="cls-1" x="418.48" y="83.9" width="9.13" height="88.07"/><path class="cls-1" d="M474.87,110a31.67,31.67,0,1,1,0,63.34,31.67,31.67,0,1,1,0-63.34m0,55.18c12.55,0,22.78-10.48,22.78-23.39s-10.23-23.63-22.78-23.63-22.65,10.6-22.65,23.63,10.23,23.39,22.65,23.39"/><path class="cls-1" d="M705.53,172h-9.14V159.91c-5.36,9.14-14,13.4-24.11,13.4-18.4,0-30.21-14.25-30.21-31.67S653.88,110,672.28,110c10.1,0,18.75,4.26,24.11,13.4V83.9h9.14Zm-32.4-6.82c12.91,0,23.39-9.38,23.39-23.51S686,118.13,673.13,118.13c-13.77,0-21.93,10.47-21.93,23.51,0,12.79,8.16,23.51,21.93,23.51"/><path class="cls-1" d="M780.56,162.71c-7.67,8.16-17.3,10.6-25.94,10.6-21,0-34.11-14.13-34.11-31.43,0-17.66,13.76-31.91,32.64-31.91,15.6,0,30.21,9.74,30.45,31.55h-54v1c0,13,9.74,22.78,25,22.78a29.7,29.7,0,0,0,20.7-8Zm-49.94-28.26h43.49C771.3,121.79,761.8,118,753.4,118c-9.75,0-19.25,5.12-22.78,16.44"/><path class="cls-1" d="M841,137.5c0-14.74-7.56-19.37-15.35-19.37-6.7,0-18.52,4.75-18.76,24.36V172h-9.14V111.31h9.14V124.1c3.29-9.75,12.06-14.13,20.34-14.13,6.46,0,16.2,2.31,20.83,14.25,4.75-11.45,14.13-14.25,21.32-14.25,13.76,0,24,7.43,24,27.53V172h-9.14V137.5c0-14.74-7.55-19.37-15.34-19.37-6.34,0-18.15,4.14-18.76,23.39V172H841Z"/><polygon class="cls-1" points="952.12 111.31 962.72 111.31 925.33 199.25 916.07 199.25 927.76 171.12 901.57 111.31 912.05 111.31 932.63 160.76 952.12 111.31"/><polygon class="cls-1" points="612.33 141.91 637.44 111.32 625.48 111.32 605.18 137.45 597.94 137.45 597.94 83.9 588.82 83.89 588.81 137.45 577.36 137.45 577.36 145.8 588.8 145.8 588.8 171.97 597.94 171.97 597.94 145.8 603.79 145.8 627.32 171.97 639.76 171.97 612.33 141.91"/><path class="cls-1" d="M566,156.52a22.52,22.52,0,0,1-17.65,8.63c-12.42,0-22.65-10.48-22.65-23.39s10.23-23.63,22.65-23.63a22.43,22.43,0,0,1,17.7,8.79l5.13-7.28a31.63,31.63,0,1,0-.06,44.15Z"/></g></g></svg>